<?xml version="1.0" encoding="utf-8"?>

<!DOCTYPE svg PUBLIC "-//W3C//DTD SVG 1.1//EN" "http://www.w3.org/Graphics/SVG/1.1/DTD/svg11.dtd">
<svg version="1.1" id="Layer_1" xmlns="http://www.w3.org/2000/svg" xmlns:xlink="http://www.w3.org/1999/xlink" x="0px" y="0px"
	 viewBox="0 0 1673.806 1673.806" enable-background="new 0 0 1673.806 1673.806" xml:space="preserve">
<g>
	<path d="M1427.843,930.498l-7.102,5.31l-1.73,5.325c16.535,1.447,25.622-0.337,27.258-5.372l0.725-2.23v-2.345
		c0-5.294-8.091-9.799-24.264-13.532v5.599L1427.843,930.498z"/>
	<path d="M1369.997,1108.528l-8.395,2.855l-3.291,4.53c15.278,6.486,24.472,7.597,27.583,3.314l1.378-1.897l0.725-2.23
		c1.636-5.035-4.667-11.819-18.895-20.367l-1.73,5.325L1369.997,1108.528z"/>
	<path d="M1259.969,1259.969l-8.866,0.121l-4.53,3.291c12.526,10.89,20.927,14.788,25.209,11.676l1.897-1.378l1.378-1.897
		c3.112-4.283-0.786-12.683-11.676-25.209l-3.291,4.53L1259.969,1259.969z"/>
	<path d="M1108.528,1369.997l-8.47-2.625l-5.325,1.73c8.548,14.228,15.333,20.531,20.367,18.895l2.23-0.725l1.897-1.378
		c4.283-3.112,3.172-12.305-3.314-27.583l-4.53,3.291L1108.528,1369.997z"/>
	<path d="M930.498,1427.843l-7.244-5.114h-5.599c3.733,16.173,8.238,24.264,13.532,24.264h2.345l2.23-0.725
		c5.035-1.636,6.819-10.723,5.372-27.258l-5.325,1.73L930.498,1427.843z"/>
	<path d="M743.307,1427.843l-5.31-7.102l-5.325-1.73c-1.447,16.535,0.337,25.622,5.371,27.258l2.23,0.725h2.345
		c5.294,0,9.799-8.091,13.532-24.264h-5.599L743.307,1427.843z"/>
	<path d="M565.278,1369.997l-2.855-8.395l-4.53-3.291c-6.486,15.278-7.597,24.472-3.314,27.583l1.897,1.378l2.23,0.725
		c5.035,1.636,11.819-4.667,20.367-18.895l-5.325-1.73L565.278,1369.997z"/>
	<path d="M413.837,1259.969l-0.121-8.866l-3.291-4.53c-10.89,12.526-14.788,20.927-11.676,25.209l1.378,1.897l1.897,1.378
		c4.283,3.112,12.683-0.786,25.209-11.676l-4.53-3.291L413.837,1259.969z"/>
	<path d="M303.808,1108.528l2.625-8.47l-1.73-5.325c-14.228,8.548-20.53,15.333-18.895,20.367l0.725,2.23l1.378,1.897
		c3.112,4.283,12.305,3.172,27.583-3.314l-3.291-4.53L303.808,1108.528z"/>
	<path d="M245.963,930.498l5.114-7.244v-5.599c-16.173,3.733-24.264,8.238-24.264,13.532v2.345l0.725,2.23
		c1.636,5.035,10.723,6.819,27.258,5.372l-1.73-5.325L245.963,930.498z"/>
	<path d="M245.963,743.307l7.102-5.31l1.73-5.325c-16.535-1.447-25.622,0.337-27.258,5.371l-0.725,2.23v2.345
		c0,5.294,8.091,9.799,24.264,13.532v-5.599L245.963,743.307z"/>
	<path d="M303.808,565.278l8.395-2.855l3.291-4.53c-15.278-6.486-24.472-7.597-27.583-3.314l-1.378,1.897l-0.725,2.23
		c-1.636,5.035,4.667,11.819,18.895,20.367l1.73-5.325L303.808,565.278z"/>
	<path d="M413.837,413.837l8.866-0.121l4.53-3.291c-12.526-10.89-20.926-14.788-25.209-11.676l-1.897,1.378l-1.378,1.897
		c-3.112,4.283,0.786,12.683,11.676,25.209l3.291-4.53L413.837,413.837z"/>
	<path d="M565.278,303.808l8.47,2.625l5.325-1.73c-8.548-14.228-15.333-20.53-20.367-18.895l-2.23,0.725l-1.897,1.378
		c-4.283,3.112-3.172,12.305,3.314,27.583l4.53-3.291L565.278,303.808z"/>
	<path d="M743.307,245.963l7.244,5.114h5.599c-3.733-16.173-8.238-24.264-13.532-24.264h-2.345l-2.23,0.725
		c-5.035,1.636-6.819,10.723-5.371,27.258l5.325-1.73L743.307,245.963z"/>
	<path d="M930.498,245.963l5.31,7.102l5.325,1.73c1.447-16.535-0.337-25.622-5.372-27.258l-2.23-0.725h-2.345
		c-5.294,0-9.799,8.091-13.532,24.264h5.599L930.498,245.963z"/>
	<path d="M1108.528,303.808l2.855,8.395l4.53,3.291c6.486-15.278,7.597-24.472,3.314-27.583l-1.897-1.378l-2.23-0.725
		c-5.035-1.636-11.819,4.667-20.367,18.895l5.325,1.73L1108.528,303.808z"/>
	<path d="M1259.969,413.837l0.121,8.866l3.291,4.53c10.89-12.526,14.788-20.926,11.676-25.209l-1.378-1.897l-1.897-1.378
		c-4.283-3.112-12.683,0.786-25.209,11.676l4.53,3.291L1259.969,413.837z"/>
	<path d="M1369.997,565.278l-2.625,8.47l1.73,5.325c14.228-8.548,20.531-15.333,18.895-20.367l-0.725-2.23l-1.378-1.897
		c-3.112-4.283-12.305-3.172-27.583,3.314l3.291,4.53L1369.997,565.278z"/>
	<path d="M1427.843,743.307l-5.114,7.244v5.599c16.173-3.733,24.264-8.238,24.264-13.532v-2.345l-0.725-2.23
		c-1.636-5.035-10.723-6.819-27.258-5.371l1.73,5.325L1427.843,743.307z"/>
	<path d="M1414.797,928.432l-1.6,4.925l4.881,1.586c1.098-2.309,2.281-4.119,3.547-5.429c-0.8-1.637-1.365-3.724-1.696-6.26h-5.133
		v5.178H1414.797z"/>
	<path d="M1358.228,1102.531l-3.044,4.189l4.152,3.017c1.758-1.857,3.442-3.213,5.052-4.067c-0.255-1.804-0.148-3.963,0.321-6.477
		l-4.881-1.586L1358.228,1102.531z"/>
	<path d="M1250.629,1250.629l-4.189,3.043l3.017,4.152c2.246-1.223,4.266-1.992,6.061-2.307c0.315-1.795,1.084-3.815,2.307-6.061
		l-4.152-3.017L1250.629,1250.629z"/>
	<path d="M1102.531,1358.228l-4.925,1.6l1.586,4.881c2.514-0.469,4.673-0.576,6.477-0.321c0.854-1.609,2.21-3.293,4.067-5.052
		l-3.017-4.152L1102.531,1358.228z"/>
	<path d="M928.432,1414.797h-5.178v5.133c2.536,0.331,4.622,0.896,6.26,1.696c1.31-1.267,3.12-2.449,5.429-3.547l-1.586-4.881
		L928.432,1414.797z"/>
	<path d="M745.373,1414.797l-4.925-1.6l-1.586,4.881c2.309,1.098,4.119,2.281,5.429,3.547c1.637-0.8,3.724-1.365,6.26-1.696v-5.133
		h-5.178V1414.797z"/>
	<path d="M571.274,1358.228l-4.189-3.044l-3.017,4.152c1.857,1.758,3.213,3.442,4.067,5.052c1.804-0.255,3.963-0.148,6.477,0.321
		l1.586-4.881L571.274,1358.228z"/>
	<path d="M423.176,1250.629l-3.044-4.189l-4.152,3.017c1.223,2.246,1.992,4.266,2.307,6.061c1.795,0.315,3.815,1.084,6.061,2.307
		l3.017-4.152L423.176,1250.629z"/>
	<path d="M315.577,1102.531l-1.6-4.925l-4.881,1.586c0.469,2.514,0.576,4.673,0.321,6.477c1.609,0.854,3.293,2.21,5.051,4.067
		l4.152-3.017L315.577,1102.531z"/>
	<path d="M259.009,928.432v-5.178h-5.133c-0.331,2.536-0.896,4.622-1.696,6.26c1.267,1.31,2.449,3.12,3.547,5.429l4.881-1.586
		L259.009,928.432z"/>
	<path d="M259.009,745.373l1.6-4.925l-4.881-1.586c-1.098,2.309-2.281,4.119-3.547,5.429c0.8,1.637,1.365,3.724,1.696,6.26h5.133
		v-5.178H259.009z"/>
	<path d="M315.577,571.274l3.044-4.189l-4.152-3.017c-1.758,1.857-3.442,3.213-5.051,4.067c0.255,1.804,0.148,3.963-0.321,6.477
		l4.881,1.586L315.577,571.274z"/>
	<path d="M423.176,423.176l4.189-3.044l-3.017-4.152c-2.246,1.223-4.266,1.992-6.061,2.307c-0.315,1.795-1.084,3.815-2.307,6.061
		l4.152,3.017L423.176,423.176z"/>
	<path d="M571.274,315.577l4.924-1.6l-1.586-4.881c-2.514,0.469-4.673,0.576-6.477,0.321c-0.854,1.609-2.21,3.293-4.067,5.051
		l3.017,4.152L571.274,315.577z"/>
	<path d="M745.373,259.009h5.178v-5.133c-2.536-0.331-4.622-0.896-6.26-1.696c-1.31,1.267-3.12,2.449-5.429,3.547l1.586,4.881
		L745.373,259.009z"/>
	<path d="M928.432,259.009l4.925,1.6l1.586-4.881c-2.309-1.098-4.119-2.281-5.429-3.547c-1.637,0.8-3.724,1.365-6.26,1.696v5.133
		h5.178V259.009z"/>
	<path d="M1102.531,315.577l4.189,3.044l3.017-4.152c-1.857-1.758-3.213-3.442-4.067-5.051c-1.804,0.255-3.963,0.148-6.477-0.321
		l-1.586,4.881L1102.531,315.577z"/>
	<path d="M1250.629,423.176l3.043,4.189l4.152-3.017c-1.223-2.246-1.992-4.266-2.307-6.061c-1.795-0.315-3.815-1.084-6.061-2.307
		l-3.017,4.152L1250.629,423.176z"/>
	<path d="M1358.228,571.274l1.6,4.924l4.881-1.586c-0.469-2.514-0.576-4.673-0.321-6.477c-1.609-0.854-3.293-2.21-5.052-4.067
		l-4.152,3.017L1358.228,571.274z"/>
	<path d="M1414.797,745.373v5.178h5.133c0.331-2.536,0.896-4.622,1.696-6.26c-1.267-1.31-2.449-3.12-3.547-5.429l-4.881,1.586
		L1414.797,745.373z"/>
	<path d="M1509.518,747.752c-6.845,0-15.865,1.866-27.063,5.599v5.599c6.841,1.561,13.998,2.333,21.464,2.333v2.8
		c-14.98,0-15.004,0.726-21.464-2.8v5.599c3.42,6.533,8.866,11.045,16.331,13.532c3.108,0,13.065-3.572,29.863-10.732
		C1522.737,756.617,1516.359,749.313,1509.518,747.752z"/>
	<path d="M1449.049,544.265c-6.51,2.115-14.511,6.678-24.009,13.688l1.73,5.325c6.988-0.629,14.034-2.107,21.134-4.414l0.865,2.663
		c-14.246,4.629-14.045,5.327-21.279,3.97l1.73,5.325c5.271,5.156,11.845,7.764,19.714,7.823c2.956-0.96,11.322-7.434,25.085-19.435
		C1464.361,548.612,1456.037,543.636,1449.049,544.265z"/>
	<path d="M1328.659,369.425c-5.538,4.023-11.738,10.835-18.604,20.437l3.291,4.53c6.452-2.758,12.696-6.341,18.736-10.729
		l1.646,2.265c-12.119,8.805-11.712,9.406-19.01,10.351l3.291,4.53c6.607,3.275,13.664,3.724,21.166,1.348
		c2.514-1.827,8.47-10.569,17.852-26.235C1344.564,368.827,1335.11,366.667,1328.659,369.425z"/>
	<path d="M1160.132,240.344c-4.024,5.538-7.815,13.932-11.378,25.186l4.53,3.291c5.283-4.617,10.115-9.954,14.504-15.993
		l2.265,1.646c-8.805,12.119-8.232,12.565-14.881,15.719l4.53,3.291c7.295,1.073,14.146-0.681,20.547-5.259
		c1.827-2.514,4.79-12.669,8.871-30.468C1175.074,234.86,1165.415,235.727,1160.132,240.344z"/>
	<path d="M959.965,169.658c-2.115,6.51-3.127,15.665-3.038,27.469l5.325,1.73c3.598-6.023,6.545-12.592,8.852-19.693l2.663,0.865
		c-4.629,14.247-3.946,14.494-9.295,19.548l5.325,1.73c7.27-1.234,13.244-5.019,17.916-11.351c0.96-2.955,0.64-13.529-0.979-31.718
		C972.481,159.826,963.563,163.635,959.965,169.658z"/>
	<path d="M747.752,164.287c0,6.845,1.866,15.865,5.599,27.063h5.599c1.561-6.84,2.333-13.998,2.333-21.464h2.8
		c0,14.98,0.726,15.004-2.8,21.464h5.599c6.533-3.42,11.045-8.866,13.532-16.331c0-3.108-3.572-13.065-10.732-29.863
		C756.617,151.068,749.313,157.447,747.752,164.287z"/>
	<path d="M544.265,224.757c2.115,6.51,6.678,14.511,13.688,24.009l5.325-1.73c-0.629-6.988-2.107-14.034-4.414-21.134l2.663-0.865
		c4.629,14.247,5.327,14.045,3.97,21.279l5.325-1.73c5.156-5.271,7.764-11.845,7.823-19.714c-0.96-2.955-7.434-11.322-19.435-25.085
		C548.612,209.445,543.636,217.769,544.265,224.757z"/>
	<path d="M369.425,345.147c4.023,5.538,10.835,11.738,20.437,18.604l4.53-3.291c-2.758-6.452-6.341-12.696-10.729-18.736
		l2.265-1.646c8.805,12.119,9.406,11.712,10.351,19.01l4.53-3.291c3.275-6.607,3.724-13.664,1.348-21.166
		c-1.827-2.514-10.569-8.47-26.235-17.852C368.827,329.242,366.667,338.696,369.425,345.147z"/>
	<path d="M240.344,513.674c5.538,4.023,13.932,7.815,25.186,11.378l3.291-4.53c-4.617-5.283-9.954-10.115-15.993-14.504l1.646-2.265
		c12.119,8.805,12.565,8.232,15.719,14.881l3.291-4.53c1.073-7.295-0.681-14.146-5.259-20.547
		c-2.514-1.827-12.669-4.79-30.468-8.871C234.86,498.732,235.727,508.391,240.344,513.674z"/>
	<path d="M169.658,713.841c6.51,2.115,15.665,3.127,27.469,3.038l1.73-5.325c-6.023-3.598-12.592-6.545-19.693-8.852l0.865-2.663
		c14.247,4.629,14.494,3.946,19.548,9.295l1.73-5.325c-1.234-7.27-5.019-13.244-11.351-17.916c-2.955-0.96-13.529-0.64-31.718,0.979
		C159.826,701.324,163.635,710.243,169.658,713.841z"/>
	<path d="M164.287,926.054c6.845,0,15.865-1.866,27.063-5.599v-5.599c-6.84-1.561-13.998-2.333-21.464-2.333v-2.8
		c14.98,0,15.004-0.726,21.464,2.8v-5.599c-3.42-6.533-8.866-11.045-16.331-13.532c-3.108,0-13.065,3.572-29.863,10.732
		C151.068,917.188,157.447,924.493,164.287,926.054z"/>
	<path d="M224.757,1129.54c6.51-2.115,14.511-6.678,24.009-13.688l-1.73-5.325c-6.988,0.629-14.034,2.107-21.134,4.414l-0.865-2.663
		c14.247-4.629,14.045-5.327,21.279-3.97l-1.73-5.325c-5.271-5.156-11.845-7.765-19.714-7.823
		c-2.955,0.96-11.322,7.434-25.085,19.435C209.445,1125.193,217.769,1130.17,224.757,1129.54z"/>
	<path d="M345.147,1304.381c5.538-4.024,11.738-10.835,18.604-20.438l-3.291-4.53c-6.452,2.758-12.696,6.34-18.736,10.729
		l-1.646-2.265c12.119-8.805,11.712-9.406,19.01-10.351l-3.291-4.53c-6.607-3.275-13.664-3.724-21.166-1.348
		c-2.514,1.827-8.47,10.569-17.852,26.235C329.242,1304.979,338.696,1307.139,345.147,1304.381z"/>
	<path d="M513.674,1433.462c4.023-5.538,7.815-13.932,11.378-25.186l-4.53-3.291c-5.283,4.617-10.115,9.954-14.504,15.994
		l-2.265-1.646c8.805-12.119,8.232-12.565,14.881-15.719l-4.53-3.291c-7.295-1.073-14.146,0.681-20.547,5.259
		c-1.827,2.514-4.79,12.669-8.871,30.468C498.732,1438.945,508.391,1438.078,513.674,1433.462z"/>
	<path d="M713.841,1504.147c2.115-6.51,3.127-15.665,3.038-27.469l-5.325-1.73c-3.598,6.023-6.545,12.592-8.852,19.693l-2.663-0.865
		c4.629-14.247,3.946-14.494,9.295-19.548l-5.325-1.73c-7.27,1.234-13.244,5.019-17.916,11.351
		c-0.96,2.955-0.64,13.529,0.979,31.718C701.324,1513.98,710.243,1510.171,713.841,1504.147z"/>
	<path d="M926.054,1509.518c0-6.845-1.866-15.865-5.599-27.063h-5.599c-1.561,6.841-2.333,13.998-2.333,21.464h-2.8
		c0-14.98-0.726-15.004,2.8-21.464h-5.599c-6.533,3.42-11.045,8.866-13.532,16.331c0,3.108,3.572,13.065,10.732,29.863
		C917.188,1522.737,924.493,1516.359,926.054,1509.518z"/>
	<path d="M1129.54,1449.049c-2.115-6.51-6.678-14.511-13.688-24.009l-5.325,1.73c0.629,6.988,2.107,14.034,4.414,21.134
		l-2.663,0.865c-4.629-14.246-5.327-14.045-3.97-21.279l-5.325,1.73c-5.156,5.271-7.765,11.845-7.823,19.714
		c0.96,2.956,7.434,11.322,19.435,25.085C1125.193,1464.361,1130.17,1456.037,1129.54,1449.049z"/>
	<path d="M1304.381,1328.659c-4.024-5.538-10.835-11.738-20.438-18.604l-4.53,3.291c2.758,6.452,6.34,12.696,10.729,18.736
		l-2.265,1.646c-8.805-12.119-9.406-11.712-10.351-19.01l-4.53,3.291c-3.275,6.607-3.724,13.664-1.348,21.166
		c1.827,2.514,10.569,8.47,26.235,17.852C1304.979,1344.564,1307.139,1335.11,1304.381,1328.659z"/>
	<path d="M1433.462,1160.132c-5.538-4.024-13.932-7.815-25.186-11.378l-3.291,4.53c4.617,5.283,9.954,10.115,15.994,14.504
		l-1.646,2.265c-12.119-8.805-12.565-8.232-15.719-14.881l-3.291,4.53c-1.073,7.295,0.681,14.146,5.259,20.547
		c2.514,1.827,12.669,4.79,30.468,8.871C1438.945,1175.074,1438.078,1165.415,1433.462,1160.132z"/>
	<path d="M1504.147,959.965c-6.51-2.115-15.665-3.127-27.469-3.038l-1.73,5.325c6.023,3.598,12.592,6.545,19.693,8.852l-0.865,2.663
		c-14.247-4.629-14.494-3.946-19.548-9.295l-1.73,5.325c1.234,7.27,5.019,13.244,11.351,17.916c2.955,0.96,13.529,0.64,31.718-0.979
		C1513.98,972.481,1510.171,963.563,1504.147,959.965z"/>
	<path d="M1509.518,926.054c-6.845,0-15.865-1.866-27.063-5.599v-5.599c6.841-1.561,13.998-2.333,21.464-2.333v-2.8
		c-14.98,0-15.004-0.726-21.464,2.8v-5.599c3.42-6.533,8.866-11.045,16.331-13.532c3.108,0,13.065,3.572,29.863,10.732
		C1522.737,917.188,1516.359,924.493,1509.518,926.054z"/>
	<path d="M1504.147,713.841c-6.51,2.115-15.665,3.127-27.469,3.038l-1.73-5.325c6.023-3.598,12.592-6.545,19.693-8.852l-0.865-2.663
		c-14.247,4.629-14.494,3.946-19.548,9.295l-1.73-5.325c1.234-7.27,5.019-13.244,11.351-17.916c2.955-0.96,13.529-0.64,31.718,0.979
		C1513.98,701.324,1510.171,710.243,1504.147,713.841z"/>
	<path d="M1433.462,513.674c-5.538,4.023-13.932,7.815-25.186,11.378l-3.291-4.53c4.617-5.283,9.954-10.115,15.994-14.504
		l-1.646-2.265c-12.119,8.805-12.565,8.232-15.719,14.881l-3.291-4.53c-1.073-7.295,0.681-14.146,5.259-20.547
		c2.514-1.827,12.669-4.79,30.468-8.871C1438.945,498.732,1438.078,508.391,1433.462,513.674z"/>
	<path d="M1304.381,345.147c-4.024,5.538-10.835,11.738-20.438,18.604l-4.53-3.291c2.758-6.452,6.34-12.696,10.729-18.736
		l-2.265-1.646c-8.805,12.119-9.406,11.712-10.351,19.01l-4.53-3.291c-3.275-6.607-3.724-13.664-1.348-21.166
		c1.827-2.514,10.569-8.47,26.235-17.852C1304.979,329.242,1307.139,338.696,1304.381,345.147z"/>
	<path d="M1129.54,224.757c-2.115,6.51-6.678,14.511-13.688,24.009l-5.325-1.73c0.629-6.988,2.107-14.034,4.414-21.134l-2.663-0.865
		c-4.629,14.247-5.327,14.045-3.97,21.279l-5.325-1.73c-5.156-5.271-7.765-11.845-7.823-19.714
		c0.96-2.955,7.434-11.322,19.435-25.085C1125.193,209.445,1130.17,217.769,1129.54,224.757z"/>
	<path d="M926.054,164.287c0,6.845-1.866,15.865-5.599,27.063h-5.599c-1.561-6.84-2.333-13.998-2.333-21.464h-2.8
		c0,14.98-0.726,15.004,2.8,21.464h-5.599c-6.533-3.42-11.045-8.866-13.532-16.331c0-3.108,3.572-13.065,10.732-29.863
		C917.188,151.068,924.493,157.447,926.054,164.287z"/>
	<path d="M713.841,169.658c2.115,6.51,3.127,15.665,3.038,27.469l-5.325,1.73c-3.598-6.023-6.545-12.592-8.852-19.693l-2.663,0.865
		c4.629,14.247,3.946,14.494,9.295,19.548l-5.325,1.73c-7.27-1.234-13.244-5.019-17.916-11.351
		c-0.96-2.955-0.64-13.529,0.979-31.718C701.324,159.826,710.243,163.635,713.841,169.658z"/>
	<path d="M513.674,240.344c4.023,5.538,7.815,13.932,11.378,25.186l-4.53,3.291c-5.283-4.617-10.115-9.954-14.504-15.993
		l-2.265,1.646c8.805,12.119,8.232,12.565,14.881,15.719l-4.53,3.291c-7.295,1.073-14.146-0.681-20.547-5.259
		c-1.827-2.514-4.79-12.669-8.871-30.468C498.732,234.86,508.391,235.727,513.674,240.344z"/>
	<path d="M345.147,369.425c5.538,4.023,11.738,10.835,18.604,20.437l-3.291,4.53c-6.452-2.758-12.696-6.341-18.736-10.729
		l-1.646,2.265c12.119,8.805,11.712,9.406,19.01,10.351l-3.291,4.53c-6.607,3.275-13.664,3.724-21.166,1.348
		c-2.514-1.827-8.47-10.569-17.852-26.235C329.242,368.827,338.696,366.667,345.147,369.425z"/>
	<path d="M224.757,544.265c6.51,2.115,14.511,6.678,24.009,13.688l-1.73,5.325c-6.988-0.629-14.034-2.107-21.134-4.414l-0.865,2.663
		c14.247,4.629,14.045,5.327,21.279,3.97l-1.73,5.325c-5.271,5.156-11.845,7.764-19.714,7.823
		c-2.955-0.96-11.322-7.434-25.085-19.435C209.445,548.612,217.769,543.636,224.757,544.265z"/>
	<path d="M164.287,747.752c6.845,0,15.865,1.866,27.063,5.599v5.599c-6.84,1.561-13.998,2.333-21.464,2.333v2.8
		c14.98,0,15.004,0.726,21.464-2.8v5.599c-3.42,6.533-8.866,11.045-16.331,13.532c-3.108,0-13.065-3.572-29.863-10.732
		C151.068,756.617,157.447,749.313,164.287,747.752z"/>
	<path d="M169.658,959.965c6.51-2.115,15.665-3.127,27.469-3.038l1.73,5.325c-6.023,3.598-12.592,6.545-19.693,8.852l0.865,2.663
		c14.247-4.629,14.494-3.946,19.548-9.295l1.73,5.325c-1.234,7.27-5.019,13.244-11.351,17.916c-2.955,0.96-13.529,0.64-31.718-0.979
		C159.826,972.481,163.635,963.563,169.658,959.965z"/>
	<path d="M240.344,1160.132c5.538-4.024,13.932-7.815,25.186-11.378l3.291,4.53c-4.617,5.283-9.954,10.115-15.993,14.504
		l1.646,2.265c12.119-8.805,12.565-8.232,15.719-14.881l3.291,4.53c1.073,7.295-0.681,14.146-5.259,20.547
		c-2.514,1.827-12.669,4.79-30.468,8.871C234.86,1175.074,235.727,1165.415,240.344,1160.132z"/>
	<path d="M369.425,1328.659c4.023-5.538,10.835-11.738,20.437-18.604l4.53,3.291c-2.758,6.452-6.341,12.696-10.729,18.736
		l2.265,1.646c8.805-12.119,9.406-11.712,10.351-19.01l4.53,3.291c3.275,6.607,3.724,13.664,1.348,21.166
		c-1.827,2.514-10.569,8.47-26.235,17.852C368.827,1344.564,366.667,1335.11,369.425,1328.659z"/>
	<path d="M544.265,1449.049c2.115-6.51,6.678-14.511,13.688-24.009l5.325,1.73c-0.629,6.988-2.107,14.034-4.414,21.134l2.663,0.865
		c4.629-14.246,5.327-14.045,3.97-21.279l5.325,1.73c5.156,5.271,7.764,11.845,7.823,19.714c-0.96,2.956-7.434,11.322-19.435,25.085
		C548.612,1464.361,543.636,1456.037,544.265,1449.049z"/>
	<path d="M747.752,1509.518c0-6.845,1.866-15.865,5.599-27.063h5.599c1.561,6.841,2.333,13.998,2.333,21.464h2.8
		c0-14.98,0.726-15.004-2.8-21.464h5.599c6.533,3.42,11.045,8.866,13.532,16.331c0,3.108-3.572,13.065-10.732,29.863
		C756.617,1522.737,749.313,1516.359,747.752,1509.518z"/>
	<path d="M959.965,1504.147c-2.115-6.51-3.127-15.665-3.038-27.469l5.325-1.73c3.598,6.023,6.545,12.592,8.852,19.693l2.663-0.865
		c-4.629-14.247-3.946-14.494-9.295-19.548l5.325-1.73c7.27,1.234,13.244,5.019,17.916,11.351c0.96,2.955,0.64,13.529-0.979,31.718
		C972.481,1513.98,963.563,1510.171,959.965,1504.147z"/>
	<path d="M1160.132,1433.462c-4.024-5.538-7.815-13.932-11.378-25.186l4.53-3.291c5.283,4.617,10.115,9.954,14.504,15.994
		l2.265-1.646c-8.805-12.119-8.232-12.565-14.881-15.719l4.53-3.291c7.295-1.073,14.146,0.681,20.547,5.259
		c1.827,2.514,4.79,12.669,8.871,30.468C1175.074,1438.945,1165.415,1438.078,1160.132,1433.462z"/>
	<path d="M1328.659,1304.381c-5.538-4.024-11.738-10.835-18.604-20.438l3.291-4.53c6.452,2.758,12.696,6.34,18.736,10.729
		l1.646-2.265c-12.119-8.805-11.712-9.406-19.01-10.351l3.291-4.53c6.607-3.275,13.664-3.724,21.166-1.348
		c2.514,1.827,8.47,10.569,17.852,26.235C1344.564,1304.979,1335.11,1307.139,1328.659,1304.381z"/>
	<path d="M1449.049,1129.54c-6.51-2.115-14.511-6.678-24.009-13.688l1.73-5.325c6.988,0.629,14.034,2.107,21.134,4.414l0.865-2.663
		c-14.246-4.629-14.045-5.327-21.279-3.97l1.73-5.325c5.271-5.156,11.845-7.765,19.714-7.823c2.956,0.96,11.322,7.434,25.085,19.435
		C1464.361,1125.193,1456.037,1130.17,1449.049,1129.54z"/>
	<path d="M1542.181,734.22c0-2.788-2.788-2.333-5.599-2.333v5.133c5.599,14.626,26.438,21.931,62.526,21.931v2.333
		c-38.295,0-49.396,5.349-70.458-24.264v8.399c8.086,34.223,21.618,51.327,40.595,51.327c33.904-7.153,53.814-10.732,59.726-10.732
		l5.133,2.8c0-1.866,0.933-2.8,2.8-2.8C1610.353,706.956,1583.74,719.955,1542.181,734.22z"/>
	<path d="M1475.932,521.303c-0.862-2.652-3.372-1.357-6.046-0.489l1.586,4.882c9.845,12.18,31.921,12.687,66.242,1.536l0.721,2.219
		c-36.421,11.834-45.325,20.351-74.508-1.303l2.595,7.988c18.266,30.05,36.421,42.135,54.469,36.27
		c30.034-17.28,47.864-26.836,53.486-28.663l5.747,1.077c-0.577-1.775,0.022-2.951,1.797-3.528
		C1532.342,474.307,1511.048,494.893,1475.932,521.303z"/>
	<path d="M1347.13,339.279c-1.639-2.256-3.627-0.249-5.901,1.404l3.017,4.152c13.127,8.541,34.279,2.202,63.475-19.009l1.371,1.887
		c-30.981,22.509-36.818,33.361-71.264,21.785l4.937,6.795c26.658,22.934,47.659,28.818,63.011,17.663
		c23.224-25.715,37.228-40.313,42.011-43.788l5.798-0.752c-1.097-1.51-0.891-2.813,0.619-3.911
		C1386.256,277.152,1372.366,303.31,1347.13,339.279z"/>
	<path d="M1168.383,205.965c-2.256-1.639-3.526,0.884-5.179,3.159l4.152,3.017c15.124,4.067,33.282-8.498,54.494-37.694l1.887,1.371
		c-22.509,30.981-24.707,43.106-61.044,42.74l6.795,4.937c32.44,13.574,54.231,12.68,65.386-2.673
		c14.141-31.633,22.949-49.845,26.424-54.627l5.282-2.507c-1.51-1.097-1.717-2.401-0.62-3.911
		C1186.396,134.788,1181.269,163.959,1168.383,205.965z"/>
	<path d="M957.189,134.413c-2.652-0.862-3.08,1.931-3.949,4.604l4.882,1.586c15.64-0.806,29.027-18.367,40.179-52.689l2.219,0.721
		c-11.834,36.421-10.177,48.631-44.849,59.512l7.988,2.595c35.047,2.885,55.495-4.699,61.36-22.747
		c3.674-34.455,6.423-54.497,8.25-60.119l4.249-4.016c-1.775-0.577-2.374-1.753-1.797-3.528
		C952.326,61.153,956.464,90.48,957.189,134.413z"/>
	<path d="M734.22,131.625c-2.788,0-2.333,2.788-2.333,5.599h5.133c14.626-5.599,21.931-26.438,21.931-62.526h2.333
		c0,38.295,5.349,49.396-24.264,70.458h8.399c34.223-8.086,51.327-21.618,51.327-40.595c-7.153-33.904-10.732-53.814-10.732-59.726
		l2.8-5.133c-1.866,0-2.8-0.933-2.8-2.8C706.956,63.453,719.955,90.066,734.22,131.625z"/>
	<path d="M521.303,197.874c-2.652,0.862-1.357,3.372-0.489,6.046l4.882-1.586c12.18-9.845,12.687-31.921,1.536-66.242l2.219-0.721
		c11.834,36.421,20.351,45.325-1.303,74.508l7.988-2.595c30.05-18.266,42.135-36.421,36.27-54.469
		c-17.28-30.034-26.836-47.864-28.663-53.486l1.077-5.747c-1.775,0.577-2.951-0.022-3.528-1.797
		C474.307,141.464,494.893,162.758,521.303,197.874z"/>
	<path d="M339.279,326.676c-2.256,1.639-0.249,3.627,1.404,5.901l4.152-3.017c8.541-13.127,2.202-34.279-19.009-63.475l1.887-1.371
		c22.509,30.981,33.361,36.818,21.785,71.264l6.795-4.937c22.934-26.658,28.818-47.659,17.663-63.011
		c-25.715-23.224-40.313-37.228-43.788-42.011l-0.752-5.798c-1.51,1.097-2.813,0.891-3.911-0.619
		C277.152,287.549,303.31,301.44,339.279,326.676z"/>
	<path d="M205.965,505.423c-1.639,2.256,0.884,3.526,3.159,5.179l3.017-4.152c4.067-15.124-8.498-33.282-37.694-54.494l1.371-1.887
		c30.981,22.509,43.106,24.707,42.74,61.044l4.937-6.795c13.574-32.44,12.68-54.231-2.673-65.386
		c-31.633-14.141-49.845-22.949-54.627-26.424l-2.507-5.282c-1.097,1.51-2.401,1.716-3.911,0.619
		C134.788,487.409,163.959,492.536,205.965,505.423z"/>
	<path d="M134.413,716.617c-0.862,2.652,1.931,3.08,4.604,3.949l1.586-4.881c-0.806-15.64-18.367-29.027-52.689-40.179l0.721-2.219
		c36.421,11.834,48.631,10.177,59.512,44.849l2.595-7.988c2.885-35.047-4.699-55.495-22.747-61.359
		c-34.455-3.674-54.497-6.423-60.119-8.25l-4.016-4.249c-0.577,1.775-1.753,2.374-3.528,1.797
		C61.153,721.48,90.48,717.342,134.413,716.617z"/>
	<path d="M131.625,939.586c0,2.788,2.788,2.333,5.599,2.333v-5.133c-5.599-14.626-26.438-21.931-62.526-21.931v-2.333
		c38.295,0,49.396-5.349,70.458,24.264v-8.399c-8.086-34.224-21.618-51.327-40.595-51.327
		c-33.904,7.153-53.814,10.732-59.726,10.732l-5.133-2.8c0,1.866-0.933,2.8-2.8,2.8C63.453,966.849,90.066,953.851,131.625,939.586z
		"/>
	<path d="M197.874,1152.503c0.862,2.652,3.372,1.357,6.046,0.489l-1.586-4.882c-9.845-12.18-31.921-12.687-66.242-1.536
		l-0.721-2.219c36.421-11.834,45.325-20.351,74.508,1.303l-2.595-7.988c-18.266-30.05-36.421-42.135-54.469-36.27
		c-30.034,17.28-47.864,26.836-53.486,28.663l-5.747-1.077c0.577,1.775-0.022,2.951-1.797,3.528
		C141.464,1199.498,162.758,1178.912,197.874,1152.503z"/>
	<path d="M326.676,1334.527c1.639,2.256,3.627,0.249,5.901-1.404l-3.017-4.152c-13.127-8.541-34.279-2.202-63.475,19.009
		l-1.371-1.887c30.981-22.509,36.818-33.361,71.264-21.784l-4.937-6.795c-26.658-22.934-47.659-28.818-63.011-17.663
		c-23.224,25.715-37.228,40.313-42.011,43.788l-5.798,0.752c1.097,1.51,0.891,2.813-0.619,3.911
		C287.549,1396.654,301.44,1370.495,326.676,1334.527z"/>
	<path d="M505.423,1467.84c2.256,1.639,3.526-0.884,5.179-3.159l-4.152-3.017c-15.124-4.067-33.282,8.498-54.494,37.694
		l-1.887-1.371c22.509-30.981,24.707-43.106,61.044-42.74l-6.795-4.937c-32.44-13.574-54.231-12.68-65.386,2.673
		c-14.141,31.633-22.949,49.845-26.424,54.627l-5.282,2.507c1.51,1.097,1.716,2.401,0.619,3.911
		C487.409,1539.017,492.536,1509.847,505.423,1467.84z"/>
	<path d="M716.617,1539.393c2.652,0.862,3.08-1.931,3.949-4.604l-4.881-1.586c-15.64,0.806-29.027,18.367-40.179,52.689
		l-2.219-0.721c11.834-36.421,10.177-48.631,44.849-59.512l-7.988-2.595c-35.047-2.885-55.495,4.699-61.359,22.747
		c-3.674,34.455-6.423,54.497-8.25,60.119l-4.249,4.016c1.775,0.577,2.374,1.753,1.797,3.528
		C721.48,1612.653,717.342,1583.326,716.617,1539.393z"/>
	<path d="M939.586,1542.181c2.788,0,2.333-2.788,2.333-5.599h-5.133c-14.626,5.599-21.931,26.438-21.931,62.526h-2.333
		c0-38.295-5.349-49.396,24.264-70.458h-8.399c-34.224,8.086-51.327,21.618-51.327,40.595c7.153,33.904,10.732,53.814,10.732,59.726
		l-2.8,5.133c1.866,0,2.8,0.933,2.8,2.8C966.849,1610.353,953.851,1583.74,939.586,1542.181z"/>
	<path d="M1152.503,1475.932c2.652-0.862,1.357-3.372,0.489-6.046l-4.882,1.586c-12.18,9.845-12.687,31.921-1.536,66.242
		l-2.219,0.721c-11.834-36.421-20.351-45.325,1.303-74.508l-7.988,2.595c-30.05,18.266-42.135,36.421-36.27,54.469
		c17.28,30.034,26.836,47.864,28.663,53.486l-1.077,5.747c1.775-0.577,2.951,0.022,3.528,1.797
		C1199.498,1532.342,1178.912,1511.048,1152.503,1475.932z"/>
	<path d="M1334.527,1347.13c2.256-1.639,0.249-3.627-1.404-5.901l-4.152,3.017c-8.541,13.127-2.202,34.279,19.009,63.475
		l-1.887,1.371c-22.509-30.981-33.361-36.818-21.784-71.264l-6.795,4.937c-22.934,26.658-28.818,47.659-17.663,63.011
		c25.715,23.224,40.313,37.228,43.788,42.011l0.752,5.798c1.51-1.097,2.813-0.891,3.911,0.619
		C1396.654,1386.256,1370.495,1372.366,1334.527,1347.13z"/>
	<path d="M1467.84,1168.383c1.639-2.256-0.884-3.526-3.159-5.179l-3.017,4.152c-4.067,15.124,8.498,33.282,37.694,54.494
		l-1.371,1.887c-30.981-22.509-43.106-24.707-42.74-61.044l-4.937,6.795c-13.574,32.44-12.68,54.231,2.673,65.386
		c31.633,14.141,49.845,22.949,54.627,26.424l2.507,5.282c1.097-1.51,2.401-1.717,3.911-0.62
		C1539.017,1186.396,1509.847,1181.269,1467.84,1168.383z"/>
	<path d="M1539.393,957.189c0.862-2.652-1.931-3.08-4.604-3.949l-1.586,4.882c0.806,15.64,18.367,29.027,52.689,40.179l-0.721,2.219
		c-36.421-11.834-48.631-10.177-59.512-44.849l-2.595,7.988c-2.885,35.047,4.699,55.495,22.747,61.36
		c34.455,3.674,54.497,6.423,60.119,8.25l4.016,4.249c0.577-1.775,1.753-2.374,3.528-1.797
		C1612.653,952.326,1583.326,956.464,1539.393,957.189z"/>
	<path d="M1542.181,939.586c0,2.788-2.788,2.333-5.599,2.333v-5.133c5.599-14.626,26.438-21.931,62.526-21.931v-2.333
		c-38.295,0-49.396-5.349-70.458,24.264v-8.399c8.086-34.224,21.618-51.327,40.595-51.327c33.904,7.153,53.814,10.732,59.726,10.732
		l5.133-2.8c0,1.866,0.933,2.8,2.8,2.8C1610.353,966.849,1583.74,953.851,1542.181,939.586z"/>
	<path d="M1539.393,716.617c0.862,2.652-1.931,3.08-4.604,3.949l-1.586-4.881c0.806-15.64,18.367-29.027,52.689-40.179l-0.721-2.219
		c-36.421,11.834-48.631,10.177-59.512,44.849l-2.595-7.988c-2.885-35.047,4.699-55.495,22.747-61.359
		c34.455-3.674,54.497-6.423,60.119-8.25l4.016-4.249c0.577,1.775,1.753,2.374,3.528,1.797
		C1612.653,721.48,1583.326,717.342,1539.393,716.617z"/>
	<path d="M1467.84,505.423c1.639,2.256-0.884,3.526-3.159,5.179l-3.017-4.152c-4.067-15.124,8.498-33.282,37.694-54.494
		l-1.371-1.887c-30.981,22.509-43.106,24.707-42.74,61.044l-4.937-6.795c-13.574-32.44-12.68-54.231,2.673-65.386
		c31.633-14.141,49.845-22.949,54.627-26.424l2.507-5.282c1.097,1.51,2.401,1.716,3.911,0.619
		C1539.017,487.409,1509.847,492.536,1467.84,505.423z"/>
	<path d="M1334.527,326.676c2.256,1.639,0.249,3.627-1.404,5.901l-4.152-3.017c-8.541-13.127-2.202-34.279,19.009-63.475
		l-1.887-1.371c-22.509,30.981-33.361,36.818-21.784,71.264l-6.795-4.937c-22.934-26.658-28.818-47.659-17.663-63.011
		c25.715-23.224,40.313-37.228,43.788-42.011l0.752-5.798c1.51,1.097,2.813,0.891,3.911-0.619
		C1396.654,287.549,1370.495,301.44,1334.527,326.676z"/>
	<path d="M1152.503,197.874c2.652,0.862,1.357,3.372,0.489,6.046l-4.882-1.586c-12.18-9.845-12.687-31.921-1.536-66.242
		l-2.219-0.721c-11.834,36.421-20.351,45.325,1.303,74.508l-7.988-2.595c-30.05-18.266-42.135-36.421-36.27-54.469
		c17.28-30.034,26.836-47.864,28.663-53.486l-1.077-5.747c1.775,0.577,2.951-0.022,3.528-1.797
		C1199.498,141.464,1178.912,162.758,1152.503,197.874z"/>
	<path d="M939.586,131.625c2.788,0,2.333,2.788,2.333,5.599h-5.133c-14.626-5.599-21.931-26.438-21.931-62.526h-2.333
		c0,38.295-5.349,49.396,24.264,70.458h-8.399c-34.224-8.086-51.327-21.618-51.327-40.595c7.153-33.904,10.732-53.814,10.732-59.726
		l-2.8-5.133c1.866,0,2.8-0.933,2.8-2.8C966.849,63.453,953.851,90.066,939.586,131.625z"/>
	<path d="M716.617,134.413c2.652-0.862,3.08,1.931,3.949,4.604l-4.881,1.586c-15.64-0.806-29.027-18.367-40.179-52.689l-2.219,0.721
		c11.834,36.421,10.177,48.631,44.849,59.512l-7.988,2.595c-35.047,2.885-55.495-4.699-61.359-22.747
		c-3.674-34.455-6.423-54.497-8.25-60.119l-4.249-4.016c1.775-0.577,2.374-1.753,1.797-3.528
		C721.48,61.153,717.342,90.48,716.617,134.413z"/>
	<path d="M505.423,205.965c2.256-1.639,3.526,0.884,5.179,3.159l-4.152,3.017c-15.124,4.067-33.282-8.498-54.494-37.694
		l-1.887,1.371c22.509,30.981,24.707,43.106,61.044,42.74l-6.795,4.937c-32.44,13.574-54.231,12.68-65.386-2.673
		c-14.141-31.633-22.949-49.845-26.424-54.627l-5.282-2.507c1.51-1.097,1.716-2.401,0.619-3.911
		C487.409,134.788,492.536,163.959,505.423,205.965z"/>
	<path d="M326.676,339.279c1.639-2.256,3.627-0.249,5.901,1.404l-3.017,4.152c-13.127,8.541-34.279,2.202-63.475-19.009
		l-1.371,1.887c30.981,22.509,36.818,33.361,71.264,21.785l-4.937,6.795c-26.658,22.934-47.659,28.818-63.011,17.663
		c-23.224-25.715-37.228-40.313-42.011-43.788l-5.798-0.752c1.097-1.51,0.891-2.813-0.619-3.911
		C287.549,277.152,301.44,303.31,326.676,339.279z"/>
	<path d="M197.874,521.303c0.862-2.652,3.372-1.357,6.046-0.489l-1.586,4.882c-9.845,12.18-31.921,12.687-66.242,1.536l-0.721,2.219
		c36.421,11.834,45.325,20.351,74.508-1.303l-2.595,7.988c-18.266,30.05-36.421,42.135-54.469,36.27
		c-30.034-17.28-47.864-26.836-53.486-28.663l-5.747,1.077c0.577-1.775-0.022-2.951-1.797-3.528
		C141.464,474.307,162.758,494.893,197.874,521.303z"/>
	<path d="M131.625,734.22c0-2.788,2.788-2.333,5.599-2.333v5.133c-5.599,14.626-26.438,21.931-62.526,21.931v2.333
		c38.295,0,49.396,5.349,70.458-24.264v8.399c-8.086,34.223-21.618,51.327-40.595,51.327c-33.904-7.153-53.814-10.732-59.726-10.732
		l-5.133,2.8c0-1.866-0.933-2.8-2.8-2.8C63.453,706.956,90.066,719.955,131.625,734.22z"/>
	<path d="M134.413,957.189c-0.862-2.652,1.931-3.08,4.604-3.949l1.586,4.882c-0.806,15.64-18.367,29.027-52.689,40.179l0.721,2.219
		c36.421-11.834,48.631-10.177,59.512-44.849l2.595,7.988c2.885,35.047-4.699,55.495-22.747,61.36
		c-34.455,3.674-54.497,6.423-60.119,8.25l-4.016,4.249c-0.577-1.775-1.753-2.374-3.528-1.797
		C61.153,952.326,90.48,956.464,134.413,957.189z"/>
	<path d="M205.965,1168.383c-1.639-2.256,0.884-3.526,3.159-5.179l3.017,4.152c4.067,15.124-8.498,33.282-37.694,54.494l1.371,1.887
		c30.981-22.509,43.106-24.707,42.74-61.044l4.937,6.795c13.574,32.44,12.68,54.231-2.673,65.386
		c-31.633,14.141-49.845,22.949-54.627,26.424l-2.507,5.282c-1.097-1.51-2.401-1.717-3.911-0.62
		C134.788,1186.396,163.959,1181.269,205.965,1168.383z"/>
	<path d="M339.279,1347.13c-2.256-1.639-0.249-3.627,1.404-5.901l4.152,3.017c8.541,13.127,2.202,34.279-19.009,63.475l1.887,1.371
		c22.509-30.981,33.361-36.818,21.785-71.264l6.795,4.937c22.934,26.658,28.818,47.659,17.663,63.011
		c-25.715,23.224-40.313,37.228-43.788,42.011l-0.752,5.798c-1.51-1.097-2.813-0.891-3.911,0.619
		C277.152,1386.256,303.31,1372.366,339.279,1347.13z"/>
	<path d="M521.303,1475.932c-2.652-0.862-1.357-3.372-0.489-6.046l4.882,1.586c12.18,9.845,12.687,31.921,1.536,66.242l2.219,0.721
		c11.834-36.421,20.351-45.325-1.303-74.508l7.988,2.595c30.05,18.266,42.135,36.421,36.27,54.469
		c-17.28,30.034-26.836,47.864-28.663,53.486l1.077,5.747c-1.775-0.577-2.951,0.022-3.528,1.797
		C474.307,1532.342,494.893,1511.048,521.303,1475.932z"/>
	<path d="M734.22,1542.181c-2.788,0-2.333-2.788-2.333-5.599h5.133c14.626,5.599,21.931,26.438,21.931,62.526h2.333
		c0-38.295,5.349-49.396-24.264-70.458h8.399c34.223,8.086,51.327,21.618,51.327,40.595c-7.153,33.904-10.732,53.814-10.732,59.726
		l2.8,5.133c-1.866,0-2.8,0.933-2.8,2.8C706.956,1610.353,719.955,1583.74,734.22,1542.181z"/>
	<path d="M957.189,1539.393c-2.652,0.862-3.08-1.931-3.949-4.604l4.882-1.586c15.64,0.806,29.027,18.367,40.179,52.689l2.219-0.721
		c-11.834-36.421-10.177-48.631-44.849-59.512l7.988-2.595c35.047-2.885,55.495,4.699,61.36,22.747
		c3.674,34.455,6.423,54.497,8.25,60.119l4.249,4.016c-1.775,0.577-2.374,1.753-1.797,3.528
		C952.326,1612.653,956.464,1583.326,957.189,1539.393z"/>
	<path d="M1168.383,1467.84c-2.256,1.639-3.526-0.884-5.179-3.159l4.152-3.017c15.124-4.067,33.282,8.498,54.494,37.694l1.887-1.371
		c-22.509-30.981-24.707-43.106-61.044-42.74l6.795-4.937c32.44-13.574,54.231-12.68,65.386,2.673
		c14.141,31.633,22.949,49.845,26.424,54.627l5.282,2.507c-1.51,1.097-1.717,2.401-0.62,3.911
		C1186.396,1539.017,1181.269,1509.847,1168.383,1467.84z"/>
	<path d="M1347.13,1334.527c-1.639,2.256-3.627,0.249-5.901-1.404l3.017-4.152c13.127-8.541,34.279-2.202,63.475,19.009l1.371-1.887
		c-30.981-22.509-36.818-33.361-71.264-21.784l4.937-6.795c26.658-22.934,47.659-28.818,63.011-17.663
		c23.224,25.715,37.228,40.313,42.011,43.788l5.798,0.752c-1.097,1.51-0.891,2.813,0.619,3.911
		C1386.256,1396.654,1372.366,1370.495,1347.13,1334.527z"/>
	<path d="M1475.932,1152.503c-0.862,2.652-3.372,1.357-6.046,0.489l1.586-4.882c9.845-12.18,31.921-12.687,66.242-1.536l0.721-2.219
		c-36.421-11.834-45.325-20.351-74.508,1.303l2.595-7.988c18.266-30.05,36.421-42.135,54.469-36.27
		c30.034,17.28,47.864,26.836,53.486,28.663l5.747-1.077c-0.577,1.775,0.022,2.951,1.797,3.528
		C1532.342,1199.498,1511.048,1178.912,1475.932,1152.503z"/>
	<path d="M1411.652,836.903c-0.425-7.909-1.243-17.717-2.454-29.425c37.903-39.527,70.857-65.152,98.865-76.876
		c-30.261-2.495-69.521-16.683-117.783-42.563c-2.466-11.509-4.719-21.09-6.758-28.743c-2.848-7.39-6.657-16.466-11.427-27.226
		c23.833-49.305,47.256-83.86,70.271-103.665c-29.551,6.978-71.273,5.617-125.171-4.083c-5.902-10.184-11.005-18.6-15.31-25.248
		c-4.993-6.148-11.42-13.602-19.281-22.363c7.43-54.257,19.029-94.358,34.797-120.306c-25.948,15.768-66.049,27.367-120.306,34.797
		c-8.76-7.862-16.214-14.289-22.363-19.281c-6.648-4.305-15.064-9.408-25.248-15.31c-9.7-53.897-11.061-95.62-4.083-125.171
		c-19.805,23.015-54.36,46.438-103.665,70.271c-10.761-4.77-19.836-8.579-27.226-11.427c-7.653-2.039-17.234-4.292-28.743-6.759
		c-25.88-48.262-40.068-87.522-42.563-117.783c-11.724,28.009-37.349,60.963-76.876,98.865c-11.708-1.211-21.516-2.029-29.425-2.454
		c-7.909,0.425-17.717,1.243-29.425,2.454c-39.527-37.903-65.152-70.857-76.876-98.865c-2.495,30.261-16.683,69.521-42.563,117.783
		c-11.509,2.466-21.09,4.719-28.743,6.759c-7.39,2.848-16.466,6.657-27.226,11.427c-49.305-23.833-83.86-47.256-103.665-70.271
		c6.978,29.551,5.617,71.273-4.083,125.171c-10.184,5.902-18.6,11.005-25.248,15.31c-6.148,4.993-13.602,11.42-22.363,19.281
		c-54.257-7.43-94.358-19.029-120.306-34.797c15.768,25.948,27.367,66.049,34.797,120.306c-7.862,8.76-14.289,16.214-19.281,22.363
		c-4.305,6.648-9.408,15.064-15.31,25.248c-53.897,9.7-95.62,11.061-125.171,4.083c23.015,19.805,46.438,54.36,70.271,103.665
		c-4.77,10.761-8.579,19.836-11.427,27.226c-2.039,7.653-4.292,17.234-6.759,28.743c-48.262,25.88-87.522,40.068-117.783,42.563
		c28.009,11.724,60.963,37.349,98.865,76.876c-1.211,11.708-2.029,21.516-2.454,29.425c0.425,7.909,1.243,17.717,2.454,29.425
		c-37.903,39.527-70.857,65.152-98.865,76.876c30.261,2.495,69.521,16.683,117.783,42.563c2.466,11.509,4.719,21.09,6.759,28.743
		c2.848,7.39,6.657,16.466,11.427,27.226c-23.833,49.305-47.256,83.86-70.271,103.665c29.551-6.978,71.273-5.617,125.171,4.083
		c5.902,10.184,11.005,18.6,15.31,25.248c4.993,6.148,11.42,13.602,19.281,22.363c-7.43,54.257-19.029,94.358-34.797,120.306
		c25.948-15.768,66.049-27.367,120.306-34.797c8.76,7.862,16.214,14.289,22.363,19.281c6.648,4.304,15.064,9.408,25.248,15.31
		c9.7,53.897,11.061,95.62,4.083,125.171c19.805-23.015,54.36-46.438,103.665-70.271c10.761,4.77,19.836,8.579,27.226,11.427
		c7.653,2.039,17.234,4.292,28.743,6.758c25.88,48.262,40.068,87.522,42.563,117.783c11.724-28.009,37.349-60.963,76.876-98.865
		c11.708,1.211,21.516,2.029,29.425,2.454c7.909-0.425,17.717-1.243,29.425-2.454c39.527,37.903,65.152,70.857,76.876,98.865
		c2.495-30.261,16.683-69.521,42.563-117.783c11.509-2.466,21.09-4.719,28.743-6.758c7.39-2.848,16.466-6.657,27.226-11.427
		c49.305,23.833,83.86,47.256,103.665,70.271c-6.978-29.551-5.617-71.273,4.083-125.171c10.184-5.902,18.6-11.005,25.248-15.31
		c6.148-4.993,13.602-11.42,22.363-19.281c54.257,7.43,94.358,19.029,120.306,34.797c-15.768-25.948-27.367-66.049-34.797-120.306
		c7.862-8.76,14.289-16.214,19.281-22.363c4.304-6.648,9.408-15.064,15.31-25.248c53.897-9.7,95.62-11.061,125.171-4.083
		c-23.015-19.805-46.438-54.36-70.271-103.665c4.77-10.761,8.579-19.836,11.427-27.226c2.039-7.653,4.292-17.234,6.758-28.743
		c48.262-25.88,87.522-40.068,117.783-42.563c-28.009-11.724-60.963-37.349-98.865-76.876
		C1410.408,854.62,1411.227,844.811,1411.652,836.903z M1476.286,735.634c-24.887,10.929-48.961,25.855-72.221,44.78h-2.8
		c-2.565-11.542-4.541-22.049-5.946-31.956c-1.725-9.857-3.093-20.459-4.22-32.229l2.663-0.865
		C1421.732,726.175,1449.24,732.931,1476.286,735.634z M1413.699,543.011c-20.292,18.085-38.575,39.719-54.849,64.906l-2.663,0.865
		c-6.006-10.185-11.132-19.566-15.53-28.555c-4.687-8.841-9.264-18.502-13.973-29.348l2.265-1.646
		C1358.892,550.872,1387.141,548.797,1413.699,543.011z M1294.651,379.155c-13.71,23.47-24.413,49.695-32.107,78.678l-2.265,1.646
		c-8.859-7.83-16.633-15.169-23.594-22.358c-7.189-6.96-14.528-14.734-22.358-23.594l1.646-2.265
		C1244.955,403.568,1271.18,392.865,1294.651,379.155z M1130.795,260.107c-5.786,26.558-7.862,54.807-6.223,84.749l-1.646,2.265
		c-10.846-4.709-20.507-9.286-29.348-13.973c-8.988-4.398-18.37-9.524-28.555-15.53l0.865-2.663
		C1091.076,298.682,1112.71,280.399,1130.795,260.107z M938.171,197.52c2.704,27.046,9.459,54.554,20.271,82.524l-0.865,2.663
		c-11.77-1.127-22.373-2.495-32.229-4.22c-9.907-1.405-20.414-3.381-31.956-5.946v-2.8
		C912.317,246.48,927.242,222.407,938.171,197.52z M735.634,197.52c10.929,24.887,25.855,48.961,44.78,72.221v2.8
		c-11.542,2.565-22.049,4.541-31.956,5.946c-9.857,1.725-20.459,3.093-32.229,4.22l-0.865-2.663
		C726.175,252.074,732.931,224.566,735.634,197.52z M543.011,260.107c18.085,20.292,39.719,38.575,64.906,54.849l0.865,2.663
		c-10.185,6.006-19.566,11.132-28.555,15.53c-8.841,4.686-18.502,9.264-29.348,13.973l-1.646-2.265
		C550.872,314.914,548.797,286.665,543.011,260.107z M379.155,379.155c23.47,13.71,49.695,24.413,78.678,32.107l1.646,2.265
		c-7.83,8.86-15.169,16.633-22.358,23.594c-6.96,7.189-14.734,14.528-23.594,22.358l-2.265-1.646
		C403.568,428.85,392.865,402.625,379.155,379.155z M260.107,543.011c26.558,5.786,54.807,7.862,84.749,6.223l2.265,1.646
		c-4.709,10.846-9.286,20.507-13.973,29.348c-4.398,8.988-9.524,18.37-15.53,28.555l-2.663-0.865
		C298.682,582.729,280.399,561.096,260.107,543.011z M197.52,735.634c27.046-2.704,54.554-9.459,82.524-20.271l2.663,0.865
		c-1.127,11.77-2.495,22.373-4.22,32.229c-1.405,9.907-3.381,20.414-5.946,31.956h-2.8
		C246.48,761.489,222.407,746.564,197.52,735.634z M197.52,938.171c24.887-10.929,48.961-25.855,72.221-44.78h2.8
		c2.565,11.542,4.541,22.049,5.946,31.956c1.725,9.857,3.093,20.459,4.22,32.229l-2.663,0.865
		C252.074,947.631,224.566,940.875,197.52,938.171z M260.107,1130.795c20.292-18.085,38.575-39.719,54.849-64.906l2.663-0.865
		c6.006,10.185,11.132,19.567,15.53,28.555c4.686,8.841,9.264,18.502,13.973,29.348l-2.265,1.646
		C314.914,1122.933,286.665,1125.009,260.107,1130.795z M379.155,1294.651c13.71-23.47,24.413-49.695,32.107-78.678l2.265-1.646
		c8.86,7.83,16.633,15.169,23.594,22.358c7.189,6.96,14.528,14.734,22.358,23.594l-1.646,2.265
		C428.85,1270.237,402.625,1280.941,379.155,1294.651z M543.011,1413.699c5.786-26.558,7.862-54.807,6.223-84.749l1.646-2.265
		c10.846,4.709,20.507,9.286,29.348,13.973c8.988,4.398,18.37,9.524,28.555,15.53l-0.865,2.663
		C582.729,1375.124,561.096,1393.407,543.011,1413.699z M735.634,1476.286c-2.704-27.046-9.459-54.554-20.271-82.524l0.865-2.663
		c11.77,1.127,22.373,2.495,32.229,4.22c9.907,1.405,20.414,3.381,31.956,5.946v2.8
		C761.489,1427.325,746.564,1451.399,735.634,1476.286z M938.171,1476.286c-10.929-24.887-25.855-48.961-44.78-72.221v-2.8
		c11.542-2.565,22.049-4.541,31.956-5.946c9.857-1.725,20.459-3.093,32.229-4.22l0.865,2.663
		C947.631,1421.732,940.875,1449.24,938.171,1476.286z M1130.795,1413.699c-18.085-20.292-39.719-38.575-64.906-54.849l-0.865-2.663
		c10.185-6.006,19.567-11.132,28.555-15.53c8.841-4.687,18.502-9.264,29.348-13.973l1.646,2.265
		C1122.933,1358.892,1125.009,1387.141,1130.795,1413.699z M1294.651,1294.651c-23.47-13.71-49.695-24.413-78.678-32.107
		l-1.646-2.265c7.83-8.859,15.169-16.633,22.358-23.594c6.96-7.189,14.734-14.528,23.594-22.358l2.265,1.646
		C1270.237,1244.955,1280.941,1271.18,1294.651,1294.651z M1413.699,1130.795c-26.558-5.786-54.807-7.862-84.749-6.223l-2.265-1.646
		c4.709-10.846,9.286-20.507,13.973-29.348c4.398-8.988,9.524-18.37,15.53-28.555l2.663,0.865
		C1375.124,1091.076,1393.407,1112.71,1413.699,1130.795z M1476.286,938.171c-27.046,2.704-54.554,9.459-82.524,20.271l-2.663-0.865
		c1.127-11.77,2.495-22.373,4.22-32.229c1.405-9.907,3.381-20.414,5.946-31.956h2.8
		C1427.325,912.317,1451.399,927.242,1476.286,938.171z M1358.834,754.237c1.224,14.829,1.836,22.622,1.836,23.378
		c-11.321-9.244-19.241-15.543-25.012-19.707c4.202-5.744,9.788-14.182,17.698-26.472
		C1353.589,732.155,1355.416,739.755,1358.834,754.237z M1307.744,596.997c5.746,13.726,8.737,20.948,8.97,21.666
		c-13.623-5.293-23.103-8.836-29.878-11.013c2.221-6.761,4.927-16.513,8.652-30.645
		C1295.932,577.617,1300.017,584.281,1307.744,596.997z M1210.564,463.241c9.707,11.278,14.782,17.223,15.226,17.834
		c-14.592-0.824-24.703-1.264-31.819-1.241c0.023-7.116-0.417-17.227-1.241-31.819
		C1193.342,448.459,1199.286,453.534,1210.564,463.241z M1076.808,366.062c12.717,7.726,19.381,11.812,19.992,12.256
		c-14.132,3.725-23.884,6.431-30.645,8.652c-2.177-6.775-5.72-16.255-11.013-29.878
		C1055.861,357.325,1063.083,360.315,1076.808,366.062z M919.569,314.971c14.482,3.419,22.082,5.245,22.801,5.478
		c-12.29,7.91-20.728,13.497-26.472,17.698c-4.164-5.771-10.463-13.692-19.707-25.012
		C896.946,313.136,904.739,313.748,919.569,314.971z M754.237,314.971c14.829-1.224,22.622-1.836,23.378-1.836
		c-9.244,11.321-15.543,19.242-19.707,25.012c-5.744-4.202-14.182-9.788-26.472-17.698
		C732.155,320.216,739.755,318.39,754.237,314.971z M596.997,366.062c13.726-5.746,20.948-8.736,21.666-8.97
		c-5.293,13.623-8.836,23.103-11.013,29.878c-6.761-2.221-16.513-4.927-30.645-8.652
		C577.617,377.873,584.281,373.788,596.997,366.062z M463.241,463.241c11.278-9.707,17.223-14.782,17.834-15.226
		c-0.824,14.592-1.264,24.703-1.241,31.819c-7.116-0.023-17.227,0.417-31.819,1.241
		C448.459,480.464,453.534,474.519,463.241,463.241z M366.062,596.997c7.726-12.717,11.812-19.381,12.256-19.992
		c3.725,14.133,6.431,23.884,8.652,30.645c-6.775,2.177-16.255,5.72-29.878,11.013C357.325,617.945,360.315,610.723,366.062,596.997
		z M314.971,754.237c3.419-14.482,5.245-22.082,5.478-22.801c7.91,12.29,13.497,20.728,17.698,26.472
		c-5.771,4.164-13.692,10.463-25.012,19.707C313.136,776.859,313.748,769.066,314.971,754.237z M314.971,919.569
		c-1.224-14.83-1.836-22.622-1.836-23.378c11.321,9.244,19.242,15.543,25.012,19.707c-4.202,5.744-9.788,14.182-17.698,26.472
		C320.216,941.651,318.39,934.05,314.971,919.569z M366.062,1076.808c-5.746-13.726-8.736-20.948-8.97-21.666
		c13.623,5.293,23.103,8.836,29.878,11.013c-2.221,6.761-4.927,16.513-8.652,30.645
		C377.873,1096.189,373.788,1089.525,366.062,1076.808z M463.241,1210.564c-9.707-11.278-14.782-17.223-15.226-17.834
		c14.592,0.824,24.703,1.265,31.819,1.241c-0.023,7.116,0.417,17.227,1.241,31.819
		C480.464,1225.347,474.519,1220.271,463.241,1210.564z M596.997,1307.744c-12.717-7.726-19.381-11.812-19.992-12.256
		c14.133-3.725,23.884-6.431,30.645-8.652c2.177,6.775,5.72,16.255,11.013,29.878C617.945,1316.48,610.723,1313.49,596.997,1307.744
		z M754.237,1358.834c-14.482-3.419-22.082-5.245-22.801-5.478c12.29-7.91,20.728-13.497,26.472-17.698
		c4.164,5.771,10.463,13.692,19.707,25.012C776.859,1360.67,769.066,1360.058,754.237,1358.834z M919.569,1358.834
		c-14.83,1.224-22.622,1.836-23.378,1.836c9.244-11.321,15.543-19.241,19.707-25.012c5.744,4.202,14.182,9.788,26.472,17.698
		C941.651,1353.589,934.05,1355.416,919.569,1358.834z M1076.808,1307.744c-13.726,5.746-20.948,8.737-21.666,8.97
		c5.293-13.623,8.836-23.103,11.013-29.878c6.761,2.221,16.513,4.927,30.645,8.652
		C1096.189,1295.932,1089.525,1300.017,1076.808,1307.744z M1210.564,1210.564c-11.278,9.707-17.223,14.782-17.834,15.226
		c0.824-14.592,1.265-24.703,1.241-31.819c7.116,0.023,17.227-0.417,31.819-1.241
		C1225.347,1193.342,1220.271,1199.286,1210.564,1210.564z M1307.744,1076.808c-7.726,12.717-11.812,19.381-12.256,19.992
		c-3.725-14.132-6.431-23.884-8.652-30.645c6.775-2.177,16.255-5.72,29.878-11.013
		C1316.48,1055.861,1313.49,1063.083,1307.744,1076.808z M1358.834,919.569c-3.419,14.482-5.245,22.082-5.478,22.801
		c-7.91-12.29-13.497-20.728-17.698-26.472c5.771-4.164,13.692-10.463,25.012-19.707
		C1360.67,896.946,1360.058,904.739,1358.834,919.569z M1312.339,761.601c49.964,35.893,54.097,55.901,53.837,75.302
		c0.26,19.401-3.873,39.409-53.837,75.302c36.427,49.576,34.175,69.881,27.933,88.253c-5.748,18.532-15.861,36.283-74.472,54.98
		c19.325,58.406,10.908,77.022-0.706,92.565c-11.194,15.848-26.297,29.606-87.816,29.276c0.33,61.519-13.427,76.623-29.276,87.816
		c-15.543,11.614-34.159,20.031-92.565,0.706c-18.696,58.61-36.448,68.723-54.98,74.472c-18.371,6.242-38.677,8.495-88.253-27.933
		c-35.893,49.964-55.901,54.097-75.302,53.837c-19.401,0.26-39.409-3.873-75.302-53.837c-49.576,36.427-69.881,34.175-88.253,27.933
		c-18.532-5.748-36.283-15.861-54.98-74.472c-58.406,19.325-77.022,10.908-92.565-0.706c-15.848-11.194-29.606-26.297-29.276-87.816
		c-61.519,0.33-76.623-13.427-87.816-29.276c-11.614-15.543-20.031-34.159-0.706-92.565c-58.61-18.696-68.723-36.448-74.472-54.98
		c-6.242-18.371-8.495-38.677,27.933-88.253c-49.964-35.893-54.097-55.901-53.837-75.302c-0.26-19.401,3.873-39.409,53.837-75.302
		c-36.427-49.576-34.175-69.881-27.933-88.253c5.748-18.532,15.861-36.283,74.472-54.98c-19.325-58.406-10.908-77.022,0.706-92.565
		c11.194-15.848,26.297-29.606,87.816-29.276c-0.331-61.519,13.427-76.623,29.276-87.816c15.543-11.614,34.159-20.031,92.565-0.706
		c18.696-58.61,36.448-68.723,54.98-74.472c18.371-6.242,38.677-8.495,88.253,27.933c35.893-49.964,55.901-54.097,75.302-53.837
		c19.401-0.26,39.409,3.873,75.302,53.837c49.576-36.427,69.881-34.175,88.253-27.933c18.532,5.748,36.283,15.861,54.98,74.472
		c58.406-19.325,77.022-10.908,92.565,0.706c15.848,11.194,29.606,26.297,29.276,87.816c61.519-0.331,76.623,13.427,87.816,29.276
		c11.614,15.543,20.031,34.159,0.706,92.565c58.61,18.696,68.723,36.448,74.472,54.98
		C1346.513,691.72,1348.766,712.025,1312.339,761.601z"/>
</g>
</svg>
